<svg width="183" height="27" viewBox="0 0 183 27" fill="none" xmlns="http://www.w3.org/2000/svg">
<path d="M13.5742 17.8613H16.8086C16.7266 19.6191 16.3691 21.1367 15.7363 22.4141C15.1152 23.6797 14.207 24.6523 13.0117 25.332C11.8281 26.0117 10.3457 26.3516 8.56445 26.3516C7.28711 26.3516 6.13281 26.0996 5.10156 25.5957C4.07031 25.0918 3.18555 24.3711 2.44727 23.4336C1.7207 22.4844 1.16406 21.3477 0.777344 20.0234C0.390625 18.6992 0.197266 17.2109 0.197266 15.5586V10.8301C0.197266 9.18945 0.390625 7.70703 0.777344 6.38281C1.17578 5.05859 1.74414 3.92773 2.48242 2.99023C3.23242 2.04102 4.14062 1.31445 5.20703 0.810547C6.28516 0.306641 7.50391 0.0546875 8.86328 0.0546875C10.5273 0.0546875 11.9336 0.388672 13.082 1.05664C14.2422 1.71289 15.1328 2.67969 15.7539 3.95703C16.3867 5.22266 16.7383 6.77539 16.8086 8.61523H13.5742C13.4922 7.26758 13.2812 6.17188 12.9414 5.32812C12.6016 4.47266 12.0977 3.8457 11.4297 3.44727C10.7734 3.03711 9.91797 2.83203 8.86328 2.83203C7.92578 2.83203 7.11133 3.01953 6.41992 3.39453C5.74023 3.76953 5.17773 4.30859 4.73242 5.01172C4.29883 5.70312 3.9707 6.54102 3.74805 7.52539C3.53711 8.49805 3.43164 9.58789 3.43164 10.7949V15.5586C3.43164 16.6836 3.51953 17.7324 3.69531 18.7051C3.88281 19.6777 4.17578 20.5332 4.57422 21.2715C4.98438 21.998 5.51758 22.5664 6.17383 22.9766C6.83008 23.3867 7.62695 23.5918 8.56445 23.5918C9.74805 23.5918 10.6855 23.3984 11.377 23.0117C12.0684 22.625 12.5781 22.0098 12.9062 21.166C13.2461 20.3223 13.4688 19.2207 13.5742 17.8613ZM29.4824 2.67383L22.4863 26H19.1816L27.4258 0.40625H29.5L29.4824 2.67383ZM35.1426 26L28.1465 2.67383L28.1113 0.40625H30.2031L38.4473 26H35.1426ZM35.1426 16.5254V19.3027H22.8027V16.5254H35.1426ZM47.9043 0.40625V26H44.7051V0.40625H47.9043ZM54.6367 0.40625V3.18359H37.9902V0.40625H54.6367ZM72.1797 23.2402V26H61.0703V23.2402H72.1797ZM61.6504 0.40625V26H58.416V0.40625H61.6504ZM70.6855 11.4102V14.1699H61.0703V11.4102H70.6855ZM72.0039 0.40625V3.18359H61.0703V0.40625H72.0039ZM92.3418 13.2559V22.8008C92.0605 23.1758 91.6328 23.6445 91.0586 24.207C90.4961 24.7695 89.7051 25.2676 88.6855 25.7012C87.666 26.1348 86.3301 26.3516 84.6777 26.3516C83.3535 26.3516 82.1406 26.1289 81.0391 25.6836C79.9492 25.2383 79.0059 24.5703 78.209 23.6797C77.4238 22.7773 76.8145 21.6582 76.3809 20.3223C75.9473 18.9746 75.7305 17.3984 75.7305 15.5938V10.7949C75.7305 9.00195 75.9121 7.43164 76.2754 6.08398C76.6387 4.73633 77.1777 3.61719 77.8926 2.72656C78.6191 1.83594 79.5156 1.16797 80.582 0.722656C81.6602 0.277344 82.9141 0.0546875 84.3438 0.0546875C85.9961 0.0546875 87.4023 0.365234 88.5625 0.986328C89.7227 1.60742 90.6191 2.50391 91.252 3.67578C91.8965 4.84766 92.2598 6.25391 92.3418 7.89453H89.1074C89.0254 6.83984 88.8027 5.9375 88.4395 5.1875C88.0762 4.42578 87.5605 3.8457 86.8926 3.44727C86.2246 3.03711 85.375 2.83203 84.3438 2.83203C83.3594 2.83203 82.5273 2.99609 81.8477 3.32422C81.168 3.65234 80.6113 4.14453 80.1777 4.80078C79.7559 5.45703 79.4453 6.2832 79.2461 7.2793C79.0586 8.27539 78.9648 9.43555 78.9648 10.7598V15.5938C78.9648 16.9531 79.0996 18.1367 79.3691 19.1445C79.6387 20.1523 80.0195 20.9844 80.5117 21.6406C81.0156 22.2969 81.6191 22.7891 82.3223 23.1172C83.0254 23.4336 83.8164 23.5918 84.6953 23.5918C85.6914 23.5918 86.4766 23.4863 87.0508 23.2754C87.625 23.0645 88.0645 22.8242 88.3691 22.5547C88.6855 22.2852 88.9375 22.0684 89.125 21.9043V15.998H84.4316V13.2559H92.3418ZM114.227 10.9883V15.4355C114.227 17.2402 114.027 18.8281 113.629 20.1992C113.242 21.5586 112.674 22.6953 111.924 23.6094C111.174 24.5234 110.271 25.209 109.217 25.666C108.162 26.123 106.973 26.3516 105.648 26.3516C104.371 26.3516 103.205 26.123 102.15 25.666C101.096 25.209 100.188 24.5234 99.4258 23.6094C98.6641 22.6953 98.0723 21.5586 97.6504 20.1992C97.2402 18.8281 97.0352 17.2402 97.0352 15.4355V10.9883C97.0352 9.18359 97.2402 7.60156 97.6504 6.24219C98.0605 4.87109 98.6465 3.72852 99.4082 2.81445C100.17 1.90039 101.078 1.21484 102.133 0.757812C103.188 0.289062 104.354 0.0546875 105.631 0.0546875C106.955 0.0546875 108.145 0.289062 109.199 0.757812C110.266 1.21484 111.168 1.90039 111.906 2.81445C112.656 3.72852 113.23 4.87109 113.629 6.24219C114.027 7.60156 114.227 9.18359 114.227 10.9883ZM111.027 15.4355V10.9531C111.027 9.54688 110.91 8.33984 110.676 7.33203C110.441 6.3125 110.096 5.48047 109.639 4.83594C109.182 4.19141 108.619 3.7168 107.951 3.41211C107.283 3.0957 106.51 2.9375 105.631 2.9375C104.799 2.9375 104.049 3.0957 103.381 3.41211C102.725 3.7168 102.162 4.19141 101.693 4.83594C101.225 5.48047 100.861 6.3125 100.604 7.33203C100.357 8.33984 100.234 9.54688 100.234 10.9531V15.4355C100.234 16.8535 100.357 18.0723 100.604 19.0918C100.861 20.0996 101.225 20.9316 101.693 21.5879C102.174 22.2324 102.748 22.7129 103.416 23.0293C104.084 23.334 104.828 23.4863 105.648 23.4863C106.527 23.4863 107.301 23.334 107.969 23.0293C108.648 22.7129 109.211 22.2324 109.656 21.5879C110.113 20.9316 110.453 20.0996 110.676 19.0918C110.91 18.0723 111.027 16.8535 111.027 15.4355ZM119.254 0.40625H126.408C128.072 0.40625 129.467 0.699219 130.592 1.28516C131.729 1.87109 132.584 2.73828 133.158 3.88672C133.744 5.02344 134.037 6.42383 134.037 8.08789C134.037 9.25977 133.844 10.332 133.457 11.3047C133.07 12.2656 132.508 13.0859 131.77 13.7656C131.031 14.4336 130.135 14.9316 129.08 15.2598L128.201 15.6289H121.82L121.785 12.8691H126.373C127.357 12.8691 128.178 12.6582 128.834 12.2363C129.49 11.8027 129.982 11.2227 130.311 10.4961C130.639 9.76953 130.803 8.9668 130.803 8.08789C130.803 7.10352 130.656 6.24219 130.363 5.50391C130.07 4.76562 129.602 4.19727 128.957 3.79883C128.324 3.38867 127.475 3.18359 126.408 3.18359H122.488V26H119.254V0.40625ZM131.541 26L126.443 14.3984L129.801 14.3809L135.004 25.7891V26H131.541ZM141.736 0.40625V26H138.502V0.40625H141.736ZM155.975 2.67383L148.979 26H145.674L153.918 0.40625H155.992L155.975 2.67383ZM161.635 26L154.639 2.67383L154.604 0.40625H156.695L164.939 26H161.635ZM161.635 16.5254V19.3027H149.295V16.5254H161.635ZM179.652 19.5312C179.652 18.9336 179.582 18.4062 179.441 17.9492C179.301 17.4805 179.055 17.0586 178.703 16.6836C178.352 16.3086 177.859 15.9512 177.227 15.6113C176.594 15.2715 175.791 14.9258 174.818 14.5742C173.764 14.1992 172.809 13.7832 171.953 13.3262C171.098 12.8574 170.365 12.3242 169.756 11.7266C169.158 11.1289 168.695 10.4434 168.367 9.66992C168.039 8.89648 167.875 8.01172 167.875 7.01562C167.875 6.01953 168.045 5.09961 168.385 4.25586C168.736 3.41211 169.229 2.67969 169.861 2.05859C170.506 1.42578 171.279 0.933594 172.182 0.582031C173.084 0.230469 174.092 0.0546875 175.205 0.0546875C176.869 0.0546875 178.27 0.423828 179.406 1.16211C180.555 1.88867 181.422 2.84375 182.008 4.02734C182.594 5.19922 182.887 6.45312 182.887 7.78906H179.652C179.652 6.82812 179.494 5.97852 179.178 5.24023C178.873 4.49023 178.393 3.9043 177.736 3.48242C177.092 3.04883 176.248 2.83203 175.205 2.83203C174.268 2.83203 173.494 3.01367 172.885 3.37695C172.287 3.74023 171.842 4.23242 171.549 4.85352C171.268 5.47461 171.127 6.18359 171.127 6.98047C171.127 7.51953 171.221 8.01172 171.408 8.45703C171.596 8.89062 171.883 9.29492 172.27 9.66992C172.668 10.0449 173.16 10.3906 173.746 10.707C174.344 11.0234 175.047 11.3281 175.855 11.6211C177.109 12.0312 178.182 12.4883 179.072 12.9922C179.963 13.4961 180.689 14.0645 181.252 14.6973C181.814 15.3184 182.225 16.0273 182.482 16.8242C182.752 17.6094 182.887 18.5 182.887 19.4961C182.887 20.5391 182.711 21.4824 182.359 22.3262C182.02 23.1699 181.521 23.8906 180.865 24.4883C180.209 25.0859 179.418 25.5488 178.492 25.877C177.566 26.1934 176.523 26.3516 175.363 26.3516C174.355 26.3516 173.365 26.1875 172.393 25.8594C171.432 25.5312 170.559 25.0391 169.773 24.3828C168.988 23.7266 168.361 22.918 167.893 21.957C167.424 20.9844 167.189 19.8594 167.189 18.582H170.424C170.424 19.4609 170.553 20.2168 170.811 20.8496C171.068 21.4707 171.426 21.9863 171.883 22.3965C172.34 22.8066 172.861 23.1113 173.447 23.3105C174.045 23.498 174.684 23.5918 175.363 23.5918C176.301 23.5918 177.086 23.4277 177.719 23.0996C178.363 22.7715 178.844 22.3027 179.16 21.6934C179.488 21.084 179.652 20.3633 179.652 19.5312Z" fill="black"/>
</svg>
