<svg width="267" height="118" viewBox="0 0 267 118" fill="none" xmlns="http://www.w3.org/2000/svg">
<path d="M42.4688 84.0781V89H6.23438V84.5938L24.9844 59.1875C27.3281 56.0625 29.1875 53.3125 30.5625 50.9375C31.9375 48.5312 32.9219 46.3594 33.5156 44.4219C34.1094 42.4531 34.4062 40.5156 34.4062 38.6094C34.4062 35.8906 33.9531 33.4844 33.0469 31.3906C32.1719 29.2969 30.875 27.6562 29.1562 26.4688C27.4375 25.2813 25.3281 24.6875 22.8281 24.6875C20.1719 24.6875 17.9062 25.375 16.0312 26.75C14.1875 28.0938 12.75 29.9531 11.7188 32.3281C10.7188 34.7031 10.2188 37.4062 10.2188 40.4375H5.01562C5.01562 36.6562 5.71875 33.2188 7.125 30.125C8.53125 27 10.5625 24.5 13.2188 22.625C15.875 20.75 19.0781 19.8125 22.8281 19.8125C26.2969 19.8125 29.2812 20.5469 31.7812 22.0156C34.2812 23.4531 36.2188 25.5312 37.5938 28.25C38.9688 30.9688 39.6562 34.25 39.6562 38.0938C39.6562 40.125 39.3438 42.1875 38.7188 44.2812C38.125 46.375 37.2969 48.4688 36.2344 50.5625C35.2031 52.625 34 54.6719 32.625 56.7031C31.2812 58.7031 29.8906 60.6875 28.4531 62.6562L12.5625 84.0781H42.4688ZM87.75 49.0156V60.4531C87.75 65.5156 87.3438 69.9062 86.5312 73.625C85.75 77.3125 84.5938 80.3594 83.0625 82.7656C81.5625 85.1719 79.7188 86.9688 77.5312 88.1562C75.3438 89.3438 72.8594 89.9375 70.0781 89.9375C67.8906 89.9375 65.875 89.5625 64.0312 88.8125C62.1875 88.0625 60.5312 86.9219 59.0625 85.3906C57.625 83.8281 56.3906 81.875 55.3594 79.5312C54.3594 77.1875 53.5938 74.4531 53.0625 71.3281C52.5625 68.1719 52.3125 64.5469 52.3125 60.4531V49.0156C52.3125 44.0156 52.7188 39.6719 53.5312 35.9844C54.3438 32.2969 55.5156 29.25 57.0469 26.8438C58.6094 24.4375 60.4688 22.6563 62.625 21.5C64.8125 20.3437 67.2812 19.7656 70.0312 19.7656C72.25 19.7656 74.2812 20.1406 76.125 20.8906C77.9688 21.6406 79.6094 22.7812 81.0469 24.3125C82.4844 25.8125 83.7031 27.7188 84.7031 30.0312C85.7031 32.3438 86.4531 35.0938 86.9531 38.2812C87.4844 41.4375 87.75 45.0156 87.75 49.0156ZM82.5469 61.1562V48.2656C82.5469 45.1719 82.375 42.375 82.0312 39.875C81.7188 37.3438 81.2344 35.1406 80.5781 33.2656C79.9219 31.3594 79.0781 29.7656 78.0469 28.4844C77.0156 27.2031 75.8281 26.25 74.4844 25.625C73.1719 24.9688 71.6719 24.6406 69.9844 24.6406C67.9219 24.6406 66.1094 25.1406 64.5469 26.1406C63.0156 27.1406 61.7188 28.6406 60.6562 30.6406C59.625 32.6094 58.8438 35.0781 58.3125 38.0469C57.7812 40.9844 57.5156 44.4062 57.5156 48.3125V61.1562C57.5156 64.2188 57.6875 67.0156 58.0312 69.5469C58.375 72.0469 58.875 74.2656 59.5312 76.2031C60.2188 78.1094 61.0625 79.7344 62.0625 81.0781C63.0938 82.3906 64.2656 83.375 65.5781 84.0312C66.9219 84.6875 68.4219 85.0156 70.0781 85.0156C72.1719 85.0156 74 84.5 75.5625 83.4688C77.125 82.4062 78.4219 80.8594 79.4531 78.8281C80.4844 76.7969 81.25 74.3125 81.75 71.375C82.2812 68.4062 82.5469 65 82.5469 61.1562Z" fill="black"/>
<path d="M116.797 73.1719V78.0938C116.797 79.5833 116.625 80.9062 116.281 82.0625C115.948 83.2083 115.458 84.1719 114.812 84.9531C114.177 85.7344 113.406 86.3281 112.5 86.7344C111.604 87.1302 110.589 87.3281 109.453 87.3281C108.339 87.3281 107.328 87.1302 106.422 86.7344C105.516 86.3281 104.74 85.7344 104.094 84.9531C103.448 84.1719 102.948 83.2083 102.594 82.0625C102.25 80.9062 102.078 79.5833 102.078 78.0938V73.1719C102.078 71.6719 102.25 70.3438 102.594 69.1875C102.938 68.0312 103.427 67.0677 104.062 66.2969C104.708 65.526 105.484 64.9427 106.391 64.5469C107.297 64.1406 108.307 63.9375 109.422 63.9375C110.568 63.9375 111.594 64.1406 112.5 64.5469C113.406 64.9427 114.177 65.526 114.812 66.2969C115.458 67.0677 115.948 68.0312 116.281 69.1875C116.625 70.3438 116.797 71.6719 116.797 73.1719ZM115.016 78.0938V73.1406C115.016 71.901 114.891 70.8125 114.641 69.875C114.401 68.9375 114.047 68.1562 113.578 67.5312C113.109 66.9062 112.526 66.4375 111.828 66.125C111.13 65.8125 110.328 65.6562 109.422 65.6562C108.547 65.6562 107.76 65.8125 107.062 66.125C106.375 66.4375 105.792 66.9115 105.312 67.5469C104.844 68.1719 104.484 68.9531 104.234 69.8906C103.984 70.8177 103.859 71.901 103.859 73.1406V78.0938C103.859 79.3438 103.984 80.4375 104.234 81.375C104.495 82.3021 104.865 83.0833 105.344 83.7188C105.823 84.3438 106.406 84.8125 107.094 85.125C107.792 85.4375 108.578 85.5938 109.453 85.5938C110.359 85.5938 111.156 85.4375 111.844 85.125C112.542 84.8125 113.125 84.3438 113.594 83.7188C114.062 83.0833 114.417 82.3021 114.656 81.375C114.896 80.4375 115.016 79.3438 115.016 78.0938ZM123.375 64.25V87H121.578V64.25H123.375ZM132.094 74.6875V76.3906H122.828V74.6875H132.094ZM133.406 64.25V65.9219H122.828V64.25H133.406ZM139.094 64.25V87H137.297V64.25H139.094ZM147.812 74.6875V76.3906H138.547V74.6875H147.812ZM149.125 64.25V65.9219H138.547V64.25H149.125Z" fill="black"/>
<path d="M101.951 32.6816V31.3281C101.951 30.3555 102.121 29.4707 102.461 28.6738C102.812 27.877 103.305 27.2383 103.938 26.7578C104.57 26.2773 105.32 26.0371 106.188 26.0371C107.066 26.0371 107.822 26.2773 108.455 26.7578C109.088 27.2383 109.574 27.877 109.914 28.6738C110.266 29.4707 110.441 30.3555 110.441 31.3281V32.6816C110.441 33.6309 110.266 34.5039 109.914 35.3008C109.574 36.0977 109.088 36.7363 108.455 37.2168C107.834 37.6973 107.09 37.9375 106.223 37.9375C105.355 37.9375 104.6 37.6973 103.955 37.2168C103.322 36.7363 102.83 36.0977 102.479 35.3008C102.127 34.5039 101.951 33.6309 101.951 32.6816ZM103.498 31.3281V32.6816C103.498 33.3027 103.598 33.8945 103.797 34.457C103.996 35.0195 104.295 35.4824 104.693 35.8457C105.104 36.1973 105.613 36.373 106.223 36.373C106.832 36.373 107.33 36.1973 107.717 35.8457C108.104 35.4941 108.396 35.0371 108.596 34.4746C108.795 33.9004 108.895 33.3027 108.895 32.6816V31.3457C108.895 30.7012 108.795 30.0918 108.596 29.5176C108.408 28.9434 108.115 28.4805 107.717 28.1289C107.318 27.7656 106.809 27.584 106.188 27.584C105.602 27.584 105.104 27.7656 104.693 28.1289C104.295 28.4805 103.996 28.9434 103.797 29.5176C103.598 30.0918 103.498 30.6953 103.498 31.3281ZM112.691 47.0957V45.7246C112.691 44.7637 112.861 43.8848 113.201 43.0879C113.553 42.291 114.045 41.6523 114.678 41.1719C115.322 40.6914 116.078 40.4512 116.945 40.4512C117.824 40.4512 118.58 40.6914 119.213 41.1719C119.846 41.6523 120.332 42.291 120.672 43.0879C121.023 43.8848 121.199 44.7637 121.199 45.7246V47.0957C121.199 48.0566 121.023 48.9355 120.672 49.7324C120.332 50.5293 119.846 51.168 119.213 51.6484C118.58 52.1289 117.836 52.3691 116.98 52.3691C116.113 52.3691 115.352 52.1289 114.695 51.6484C114.051 51.168 113.553 50.5293 113.201 49.7324C112.861 48.9355 112.691 48.0566 112.691 47.0957ZM114.256 45.7246V47.0957C114.256 47.7168 114.35 48.3145 114.537 48.8887C114.736 49.4512 115.035 49.9141 115.434 50.2773C115.844 50.6289 116.359 50.8047 116.98 50.8047C117.59 50.8047 118.088 50.6289 118.475 50.2773C118.873 49.9258 119.166 49.4688 119.354 48.9062C119.553 48.332 119.652 47.7285 119.652 47.0957V45.7246C119.652 45.0566 119.553 44.4414 119.354 43.8789C119.154 43.3164 118.855 42.8652 118.457 42.5254C118.059 42.1738 117.555 41.998 116.945 41.998C116.348 41.998 115.844 42.1738 115.434 42.5254C115.035 42.8652 114.736 43.3164 114.537 43.8789C114.35 44.4414 114.256 45.0566 114.256 45.7246ZM117.297 29.8691L106.803 49.873L105.625 48.9941L116.119 28.9902L117.297 29.8691Z" fill="black"/>
<path d="M172.844 42.9688L167.922 59H166.539L171.965 41.9375H172.914L172.844 42.9688ZM177.25 59L172.328 42.9688L172.27 41.9375H173.207L178.645 59H177.25ZM176.488 52.9648V54.2305H168.789V52.9648H176.488ZM184.914 58.0156C185.398 58.0156 185.852 57.9258 186.273 57.7461C186.703 57.5664 187.055 57.2617 187.328 56.832C187.602 56.4023 187.758 55.8125 187.797 55.0625H189.039C189.008 55.9688 188.801 56.7344 188.418 57.3594C188.035 57.9766 187.539 58.4453 186.93 58.7656C186.32 59.0859 185.648 59.2461 184.914 59.2461C184.156 59.2461 183.492 59.1211 182.922 58.8711C182.352 58.6211 181.875 58.25 181.492 57.7578C181.109 57.2578 180.82 56.6445 180.625 55.918C180.43 55.1836 180.332 54.3359 180.332 53.375V51.9336C180.332 50.9805 180.43 50.1406 180.625 49.4141C180.82 48.6797 181.109 48.0664 181.492 47.5742C181.875 47.082 182.352 46.7109 182.922 46.4609C183.492 46.2109 184.156 46.0859 184.914 46.0859C185.688 46.0859 186.379 46.25 186.988 46.5781C187.598 46.8984 188.082 47.3906 188.441 48.0547C188.809 48.7188 189.008 49.5664 189.039 50.5977H187.797C187.766 49.8086 187.617 49.1758 187.352 48.6992C187.094 48.2148 186.754 47.8633 186.332 47.6445C185.91 47.418 185.438 47.3047 184.914 47.3047C184.312 47.3047 183.801 47.4102 183.379 47.6211C182.965 47.8242 182.629 48.125 182.371 48.5234C182.113 48.9219 181.926 49.4062 181.809 49.9766C181.691 50.5469 181.633 51.1992 181.633 51.9336V53.375C181.633 54.1172 181.691 54.7773 181.809 55.3555C181.926 55.9336 182.113 56.4219 182.371 56.8203C182.637 57.2109 182.977 57.5078 183.391 57.7109C183.812 57.9141 184.32 58.0156 184.914 58.0156ZM193.258 46.3203V59H191.957V46.3203H193.258ZM191.758 42.6758C191.758 42.3945 191.832 42.1641 191.98 41.9844C192.137 41.7969 192.352 41.7031 192.625 41.7031C192.891 41.7031 193.098 41.7969 193.246 41.9844C193.402 42.1641 193.48 42.3945 193.48 42.6758C193.48 42.9336 193.402 43.1523 193.246 43.332C193.098 43.5117 192.891 43.6016 192.625 43.6016C192.352 43.6016 192.137 43.5117 191.98 43.332C191.832 43.1523 191.758 42.9336 191.758 42.6758ZM198.156 48.9219V59H196.844V46.3203H198.098L198.156 48.9219ZM197.91 51.875L197.289 51.5352C197.32 50.7852 197.434 50.082 197.629 49.4258C197.832 48.7695 198.109 48.1914 198.461 47.6914C198.82 47.1836 199.258 46.7891 199.773 46.5078C200.289 46.2266 200.875 46.0859 201.531 46.0859C202.047 46.0859 202.512 46.1719 202.926 46.3438C203.348 46.5078 203.711 46.7695 204.016 47.1289C204.32 47.4805 204.555 47.9414 204.719 48.5117C204.883 49.0742 204.965 49.7578 204.965 50.5625V59H203.664V50.6094C203.664 49.7734 203.555 49.1172 203.336 48.6406C203.125 48.1641 202.828 47.8281 202.445 47.6328C202.07 47.4297 201.629 47.3281 201.121 47.3281C200.535 47.3281 200.039 47.4727 199.633 47.7617C199.227 48.0508 198.898 48.4258 198.648 48.8867C198.406 49.3477 198.227 49.8438 198.109 50.375C197.992 50.8984 197.926 51.3984 197.91 51.875ZM204.953 50.7734L204.074 50.8203C204.105 50.2031 204.223 49.6133 204.426 49.0508C204.629 48.4805 204.91 47.9766 205.27 47.5391C205.629 47.0938 206.059 46.7422 206.559 46.4844C207.066 46.2188 207.641 46.0859 208.281 46.0859C208.836 46.0859 209.332 46.1758 209.77 46.3555C210.207 46.5273 210.574 46.8008 210.871 47.1758C211.176 47.5508 211.406 48.0312 211.562 48.6172C211.719 49.2031 211.797 49.9062 211.797 50.7266V59H210.484V50.7148C210.484 49.832 210.375 49.1445 210.156 48.6523C209.945 48.1602 209.648 47.8164 209.266 47.6211C208.891 47.418 208.453 47.3203 207.953 47.3281C207.461 47.3281 207.027 47.4375 206.652 47.6562C206.285 47.875 205.977 48.1562 205.727 48.5C205.484 48.8359 205.297 49.207 205.164 49.6133C205.039 50.0117 204.969 50.3984 204.953 50.7734ZM221.652 56.7266V49.8242C221.652 49.2305 221.551 48.75 221.348 48.3828C221.145 48.0078 220.848 47.7344 220.457 47.5625C220.066 47.3906 219.586 47.3047 219.016 47.3047C218.477 47.3047 217.996 47.4141 217.574 47.6328C217.16 47.8438 216.836 48.1406 216.602 48.5234C216.375 48.8984 216.262 49.332 216.262 49.8242L214.961 49.8125C214.961 49.3281 215.059 48.8633 215.254 48.418C215.449 47.9648 215.727 47.5664 216.086 47.2227C216.445 46.8711 216.875 46.5938 217.375 46.3906C217.883 46.1875 218.445 46.0859 219.062 46.0859C219.82 46.0859 220.492 46.207 221.078 46.4492C221.664 46.6914 222.121 47.0898 222.449 47.6445C222.785 48.1992 222.953 48.9336 222.953 49.8477V56.3281C222.953 56.7734 222.98 57.2305 223.035 57.6992C223.098 58.168 223.18 58.5508 223.281 58.8477V59H221.898C221.812 58.7266 221.75 58.3789 221.711 57.957C221.672 57.5273 221.652 57.1172 221.652 56.7266ZM221.922 51.5938L221.957 52.707H219.707C219.098 52.707 218.562 52.7734 218.102 52.9062C217.641 53.0391 217.254 53.2305 216.941 53.4805C216.637 53.7305 216.406 54.0273 216.25 54.3711C216.094 54.7148 216.016 55.1055 216.016 55.543C216.016 56.1055 216.105 56.5664 216.285 56.9258C216.465 57.2773 216.727 57.5391 217.07 57.7109C217.422 57.875 217.84 57.957 218.324 57.957C218.965 57.957 219.527 57.832 220.012 57.582C220.504 57.3242 220.906 56.9844 221.219 56.5625C221.531 56.1328 221.734 55.6797 221.828 55.2031L222.18 56C222.102 56.3594 221.957 56.7266 221.746 57.1016C221.535 57.4766 221.262 57.8281 220.926 58.1562C220.59 58.4766 220.191 58.7383 219.73 58.9414C219.27 59.1445 218.75 59.2461 218.172 59.2461C217.477 59.2461 216.867 59.1133 216.344 58.8477C215.828 58.582 215.426 58.1797 215.137 57.6406C214.855 57.1016 214.715 56.4375 214.715 55.6484C214.715 55.0625 214.812 54.5234 215.008 54.0312C215.211 53.5391 215.512 53.1133 215.91 52.7539C216.309 52.3867 216.809 52.1016 217.41 51.8984C218.012 51.6953 218.711 51.5938 219.508 51.5938H221.922ZM174.637 84.5391V69H175.938V87H174.719L174.637 84.5391ZM167.277 81.2578V80.0742C167.277 79.0117 167.371 78.1016 167.559 77.3438C167.754 76.5781 168.031 75.957 168.391 75.4805C168.75 75.0039 169.184 74.6523 169.691 74.4258C170.207 74.1992 170.781 74.0859 171.414 74.0859C172.031 74.0859 172.57 74.2031 173.031 74.4375C173.5 74.6641 173.898 74.9883 174.227 75.4102C174.555 75.832 174.82 76.3359 175.023 76.9219C175.227 77.5 175.375 78.1484 175.469 78.8672V82.6523C175.391 83.3242 175.25 83.9414 175.047 84.5039C174.852 85.0664 174.586 85.5508 174.25 85.957C173.922 86.3633 173.52 86.6797 173.043 86.9062C172.566 87.1328 172.012 87.2461 171.379 87.2461C170.754 87.2461 170.188 87.125 169.68 86.8828C169.18 86.6406 168.75 86.2734 168.391 85.7812C168.031 85.2891 167.754 84.668 167.559 83.918C167.371 83.168 167.277 82.2812 167.277 81.2578ZM168.59 80.0742V81.2578C168.59 82.0703 168.648 82.7734 168.766 83.3672C168.891 83.9609 169.078 84.4531 169.328 84.8438C169.586 85.2266 169.906 85.5156 170.289 85.7109C170.672 85.8984 171.125 85.9922 171.648 85.9922C172.312 85.9922 172.867 85.8555 173.312 85.582C173.758 85.3008 174.113 84.9336 174.379 84.4805C174.652 84.0195 174.852 83.5156 174.977 82.9688V78.6328C174.898 78.2578 174.781 77.8789 174.625 77.4961C174.477 77.1055 174.277 76.7461 174.027 76.418C173.777 76.0898 173.457 75.8281 173.066 75.6328C172.684 75.4297 172.219 75.3281 171.672 75.3281C171.141 75.3281 170.68 75.4258 170.289 75.6211C169.898 75.8086 169.578 76.0977 169.328 76.4883C169.078 76.8789 168.891 77.3711 168.766 77.9648C168.648 78.5508 168.59 79.2539 168.59 80.0742ZM183.648 87.2461C182.945 87.2461 182.297 87.1328 181.703 86.9062C181.117 86.6719 180.609 86.3203 180.18 85.8516C179.758 85.375 179.43 84.7773 179.195 84.0586C178.961 83.332 178.844 82.4766 178.844 81.4922V80.0273C178.844 78.9805 178.969 78.082 179.219 77.332C179.469 76.5742 179.805 75.957 180.227 75.4805C180.656 74.9961 181.145 74.6445 181.691 74.4258C182.238 74.1992 182.816 74.0859 183.426 74.0859C184.121 74.0859 184.73 74.1992 185.254 74.4258C185.785 74.6523 186.23 74.9961 186.59 75.457C186.949 75.918 187.219 76.5 187.398 77.2031C187.578 77.8984 187.668 78.7227 187.668 79.6758V80.7656H179.629V79.5469H186.367V79.2188C186.352 78.3906 186.234 77.6875 186.016 77.1094C185.805 76.5234 185.484 76.0781 185.055 75.7734C184.633 75.4609 184.094 75.3047 183.438 75.3047C182.953 75.3047 182.508 75.3945 182.102 75.5742C181.695 75.7461 181.344 76.0195 181.047 76.3945C180.758 76.7695 180.535 77.2578 180.379 77.8594C180.23 78.4609 180.156 79.1836 180.156 80.0273V81.4922C180.156 82.2656 180.238 82.9375 180.402 83.5078C180.574 84.0703 180.816 84.5391 181.129 84.9141C181.441 85.2812 181.816 85.5586 182.254 85.7461C182.691 85.9258 183.176 86.0156 183.707 86.0156C184.363 86.0156 184.938 85.9062 185.43 85.6875C185.922 85.4609 186.359 85.1211 186.742 84.668L187.434 85.5352C187.199 85.8398 186.91 86.125 186.566 86.3906C186.223 86.6484 185.812 86.8555 185.336 87.0117C184.859 87.168 184.297 87.2461 183.648 87.2461ZM198.309 77.6719H199.527C200.238 77.6719 200.836 77.5273 201.32 77.2383C201.805 76.9414 202.168 76.543 202.41 76.043C202.652 75.543 202.773 74.9922 202.773 74.3906C202.773 73.7109 202.668 73.1133 202.457 72.5977C202.246 72.0742 201.926 71.6641 201.496 71.3672C201.066 71.0703 200.523 70.9219 199.867 70.9219C199.281 70.9219 198.758 71.0625 198.297 71.3438C197.844 71.625 197.484 72.0273 197.219 72.5508C196.953 73.0742 196.82 73.6953 196.82 74.4141H195.52C195.52 73.4922 195.707 72.6797 196.082 71.9766C196.457 71.2656 196.973 70.7109 197.629 70.3125C198.285 69.9062 199.027 69.7031 199.855 69.7031C200.707 69.7031 201.445 69.8867 202.07 70.2539C202.703 70.6211 203.195 71.1562 203.547 71.8594C203.898 72.5625 204.074 73.418 204.074 74.4258C204.074 74.9336 203.98 75.4375 203.793 75.9375C203.613 76.4375 203.34 76.8906 202.973 77.2969C202.613 77.6953 202.156 78.0195 201.602 78.2695C201.055 78.5195 200.418 78.6445 199.691 78.6445H198.309V77.6719ZM198.309 78.9141V77.9531H199.68C200.516 77.9531 201.23 78.0664 201.824 78.293C202.418 78.5195 202.898 78.8359 203.266 79.2422C203.633 79.6484 203.902 80.1172 204.074 80.6484C204.246 81.1797 204.332 81.7539 204.332 82.3711C204.332 83.1367 204.219 83.8242 203.992 84.4336C203.773 85.0352 203.465 85.5469 203.066 85.9688C202.668 86.3828 202.199 86.6992 201.66 86.918C201.121 87.1289 200.535 87.2344 199.902 87.2344C199.309 87.2344 198.738 87.1328 198.191 86.9297C197.652 86.7266 197.164 86.4219 196.727 86.0156C196.297 85.6094 195.953 85.1016 195.695 84.4922C195.445 83.8828 195.32 83.1758 195.32 82.3711H196.633C196.633 83.0898 196.77 83.7227 197.043 84.2695C197.316 84.8086 197.699 85.2344 198.191 85.5469C198.684 85.8516 199.25 86.0039 199.891 86.0039C200.555 86.0039 201.121 85.8672 201.59 85.5938C202.059 85.3203 202.418 84.9141 202.668 84.375C202.918 83.8359 203.043 83.1797 203.043 82.4062C203.043 81.5859 202.895 80.9219 202.598 80.4141C202.301 79.8984 201.887 79.5195 201.355 79.2773C200.832 79.0352 200.223 78.9141 199.527 78.9141H198.309ZM214.246 76.7578V91.875H212.945V74.3203H214.152L214.246 76.7578ZM221.605 80.0742V81.2578C221.605 82.2812 221.516 83.168 221.336 83.918C221.156 84.668 220.891 85.2891 220.539 85.7812C220.188 86.2734 219.758 86.6406 219.25 86.8828C218.75 87.125 218.18 87.2461 217.539 87.2461C216.906 87.2461 216.348 87.1367 215.863 86.918C215.379 86.6992 214.965 86.3906 214.621 85.9922C214.285 85.5859 214.016 85.1133 213.812 84.5742C213.609 84.0273 213.469 83.4258 213.391 82.7695V78.8672C213.477 78.1484 213.625 77.4961 213.836 76.9102C214.047 76.3242 214.32 75.8203 214.656 75.3984C214.992 74.9766 215.395 74.6523 215.863 74.4258C216.34 74.1992 216.887 74.0859 217.504 74.0859C218.16 74.0859 218.742 74.1992 219.25 74.4258C219.758 74.6445 220.188 74.9961 220.539 75.4805C220.891 75.957 221.156 76.5781 221.336 77.3438C221.516 78.1016 221.605 79.0117 221.605 80.0742ZM220.305 81.2578V80.0742C220.305 79.2539 220.242 78.5508 220.117 77.9648C219.992 77.3711 219.801 76.8789 219.543 76.4883C219.293 76.0977 218.969 75.8086 218.57 75.6211C218.18 75.4258 217.719 75.3281 217.188 75.3281C216.648 75.3281 216.184 75.4297 215.793 75.6328C215.41 75.8281 215.09 76.0898 214.832 76.418C214.582 76.7461 214.379 77.1055 214.223 77.4961C214.074 77.8789 213.965 78.2578 213.895 78.6328V83.0742C214.027 83.5898 214.227 84.0742 214.492 84.5273C214.758 84.9805 215.113 85.3438 215.559 85.6172C216.004 85.8828 216.555 86.0156 217.211 86.0156C217.742 86.0156 218.199 85.9219 218.582 85.7344C218.973 85.5391 219.293 85.2461 219.543 84.8555C219.801 84.457 219.992 83.9609 220.117 83.3672C220.242 82.7734 220.305 82.0703 220.305 81.2578ZM228.812 87.2461C228.109 87.2461 227.461 87.1328 226.867 86.9062C226.281 86.6719 225.773 86.3203 225.344 85.8516C224.922 85.375 224.594 84.7773 224.359 84.0586C224.125 83.332 224.008 82.4766 224.008 81.4922V80.0273C224.008 78.9805 224.133 78.082 224.383 77.332C224.633 76.5742 224.969 75.957 225.391 75.4805C225.82 74.9961 226.309 74.6445 226.855 74.4258C227.402 74.1992 227.98 74.0859 228.59 74.0859C229.285 74.0859 229.895 74.1992 230.418 74.4258C230.949 74.6523 231.395 74.9961 231.754 75.457C232.113 75.918 232.383 76.5 232.562 77.2031C232.742 77.8984 232.832 78.7227 232.832 79.6758V80.7656H224.793V79.5469H231.531V79.2188C231.516 78.3906 231.398 77.6875 231.18 77.1094C230.969 76.5234 230.648 76.0781 230.219 75.7734C229.797 75.4609 229.258 75.3047 228.602 75.3047C228.117 75.3047 227.672 75.3945 227.266 75.5742C226.859 75.7461 226.508 76.0195 226.211 76.3945C225.922 76.7695 225.699 77.2578 225.543 77.8594C225.395 78.4609 225.32 79.1836 225.32 80.0273V81.4922C225.32 82.2656 225.402 82.9375 225.566 83.5078C225.738 84.0703 225.98 84.5391 226.293 84.9141C226.605 85.2812 226.98 85.5586 227.418 85.7461C227.855 85.9258 228.34 86.0156 228.871 86.0156C229.527 86.0156 230.102 85.9062 230.594 85.6875C231.086 85.4609 231.523 85.1211 231.906 84.668L232.598 85.5352C232.363 85.8398 232.074 86.125 231.73 86.3906C231.387 86.6484 230.977 86.8555 230.5 87.0117C230.023 87.168 229.461 87.2461 228.812 87.2461ZM239.617 86.0156C240.102 86.0156 240.555 85.9258 240.977 85.7461C241.406 85.5664 241.758 85.2617 242.031 84.832C242.305 84.4023 242.461 83.8125 242.5 83.0625H243.742C243.711 83.9688 243.504 84.7344 243.121 85.3594C242.738 85.9766 242.242 86.4453 241.633 86.7656C241.023 87.0859 240.352 87.2461 239.617 87.2461C238.859 87.2461 238.195 87.1211 237.625 86.8711C237.055 86.6211 236.578 86.25 236.195 85.7578C235.812 85.2578 235.523 84.6445 235.328 83.918C235.133 83.1836 235.035 82.3359 235.035 81.375V79.9336C235.035 78.9805 235.133 78.1406 235.328 77.4141C235.523 76.6797 235.812 76.0664 236.195 75.5742C236.578 75.082 237.055 74.7109 237.625 74.4609C238.195 74.2109 238.859 74.0859 239.617 74.0859C240.391 74.0859 241.082 74.25 241.691 74.5781C242.301 74.8984 242.785 75.3906 243.145 76.0547C243.512 76.7188 243.711 77.5664 243.742 78.5977H242.5C242.469 77.8086 242.32 77.1758 242.055 76.6992C241.797 76.2148 241.457 75.8633 241.035 75.6445C240.613 75.418 240.141 75.3047 239.617 75.3047C239.016 75.3047 238.504 75.4102 238.082 75.6211C237.668 75.8242 237.332 76.125 237.074 76.5234C236.816 76.9219 236.629 77.4062 236.512 77.9766C236.395 78.5469 236.336 79.1992 236.336 79.9336V81.375C236.336 82.1172 236.395 82.7773 236.512 83.3555C236.629 83.9336 236.816 84.4219 237.074 84.8203C237.34 85.2109 237.68 85.5078 238.094 85.7109C238.516 85.9141 239.023 86.0156 239.617 86.0156ZM238.949 87.1172H239.945L239.828 87.8672C240.234 87.9297 240.602 88.1055 240.93 88.3945C241.266 88.6836 241.434 89.1719 241.434 89.8594C241.434 90.2109 241.371 90.5312 241.246 90.8203C241.121 91.1172 240.934 91.3633 240.684 91.5586C240.441 91.7617 240.137 91.9219 239.77 92.0391C239.41 92.1562 238.992 92.2148 238.516 92.2148L238.457 91.2891C238.785 91.2891 239.094 91.2383 239.383 91.1367C239.672 91.043 239.906 90.8906 240.086 90.6797C240.273 90.4766 240.367 90.2109 240.367 89.8828C240.367 89.5781 240.305 89.3438 240.18 89.1797C240.062 89.0156 239.879 88.8906 239.629 88.8047C239.379 88.7266 239.059 88.6641 238.668 88.6172L238.949 87.1172ZM252.965 84.7266V77.8242C252.965 77.2305 252.863 76.75 252.66 76.3828C252.457 76.0078 252.16 75.7344 251.77 75.5625C251.379 75.3906 250.898 75.3047 250.328 75.3047C249.789 75.3047 249.309 75.4141 248.887 75.6328C248.473 75.8438 248.148 76.1406 247.914 76.5234C247.688 76.8984 247.574 77.332 247.574 77.8242L246.273 77.8125C246.273 77.3281 246.371 76.8633 246.566 76.418C246.762 75.9648 247.039 75.5664 247.398 75.2227C247.758 74.8711 248.188 74.5938 248.688 74.3906C249.195 74.1875 249.758 74.0859 250.375 74.0859C251.133 74.0859 251.805 74.207 252.391 74.4492C252.977 74.6914 253.434 75.0898 253.762 75.6445C254.098 76.1992 254.266 76.9336 254.266 77.8477V84.3281C254.266 84.7734 254.293 85.2305 254.348 85.6992C254.41 86.168 254.492 86.5508 254.594 86.8477V87H253.211C253.125 86.7266 253.062 86.3789 253.023 85.957C252.984 85.5273 252.965 85.1172 252.965 84.7266ZM253.234 79.5938L253.27 80.707H251.02C250.41 80.707 249.875 80.7734 249.414 80.9062C248.953 81.0391 248.566 81.2305 248.254 81.4805C247.949 81.7305 247.719 82.0273 247.562 82.3711C247.406 82.7148 247.328 83.1055 247.328 83.543C247.328 84.1055 247.418 84.5664 247.598 84.9258C247.777 85.2773 248.039 85.5391 248.383 85.7109C248.734 85.875 249.152 85.957 249.637 85.957C250.277 85.957 250.84 85.832 251.324 85.582C251.816 85.3242 252.219 84.9844 252.531 84.5625C252.844 84.1328 253.047 83.6797 253.141 83.2031L253.492 84C253.414 84.3594 253.27 84.7266 253.059 85.1016C252.848 85.4766 252.574 85.8281 252.238 86.1562C251.902 86.4766 251.504 86.7383 251.043 86.9414C250.582 87.1445 250.062 87.2461 249.484 87.2461C248.789 87.2461 248.18 87.1133 247.656 86.8477C247.141 86.582 246.738 86.1797 246.449 85.6406C246.168 85.1016 246.027 84.4375 246.027 83.6484C246.027 83.0625 246.125 82.5234 246.32 82.0312C246.523 81.5391 246.824 81.1133 247.223 80.7539C247.621 80.3867 248.121 80.1016 248.723 79.8984C249.324 79.6953 250.023 79.5938 250.82 79.5938H253.234ZM264.191 83.8828C264.191 83.5312 264.098 83.2109 263.91 82.9219C263.73 82.6328 263.43 82.3477 263.008 82.0664C262.594 81.7852 262.027 81.4805 261.309 81.1523C260.738 80.8945 260.227 80.6445 259.773 80.4023C259.32 80.1602 258.938 79.9023 258.625 79.6289C258.32 79.3555 258.082 79.0469 257.91 78.7031C257.746 78.3516 257.664 77.9375 257.664 77.4609C257.664 76.9844 257.754 76.543 257.934 76.1367C258.113 75.7305 258.367 75.375 258.695 75.0703C259.031 74.7578 259.43 74.5156 259.891 74.3438C260.359 74.1719 260.883 74.0859 261.461 74.0859C262.289 74.0859 262.996 74.2461 263.582 74.5664C264.168 74.8789 264.621 75.3125 264.941 75.8672C265.262 76.4219 265.422 77.0625 265.422 77.7891H264.109C264.109 77.3516 264.004 76.9453 263.793 76.5703C263.59 76.1953 263.293 75.8906 262.902 75.6562C262.512 75.4219 262.031 75.3047 261.461 75.3047C260.875 75.3047 260.395 75.4102 260.02 75.6211C259.652 75.8242 259.383 76.0859 259.211 76.4062C259.047 76.7266 258.965 77.0625 258.965 77.4141C258.965 77.6719 259.004 77.9023 259.082 78.1055C259.168 78.3008 259.309 78.4922 259.504 78.6797C259.707 78.8594 259.988 79.0508 260.348 79.2539C260.715 79.4492 261.168 79.6836 261.707 79.957C262.488 80.293 263.16 80.6289 263.723 80.9648C264.285 81.293 264.719 81.6797 265.023 82.125C265.328 82.5625 265.48 83.1172 265.48 83.7891C265.48 84.3125 265.387 84.7891 265.199 85.2188C265.012 85.6406 264.746 86.0039 264.402 86.3086C264.059 86.6055 263.641 86.8359 263.148 87C262.664 87.1562 262.125 87.2344 261.531 87.2344C260.625 87.2344 259.855 87.0625 259.223 86.7188C258.598 86.375 258.121 85.9219 257.793 85.3594C257.473 84.7969 257.312 84.1875 257.312 83.5312H258.613C258.645 84.1953 258.809 84.707 259.105 85.0664C259.41 85.4258 259.781 85.6719 260.219 85.8047C260.656 85.9375 261.094 86.0039 261.531 86.0039C262.102 86.0039 262.586 85.9102 262.984 85.7227C263.383 85.5352 263.684 85.2812 263.887 84.9609C264.09 84.6328 264.191 84.2734 264.191 83.8828Z" fill="black"/>
<line x1="1.5" y1="116.5" x2="265.5" y2="116.5" stroke="#FFD089" stroke-width="3" stroke-linecap="round"/>
</svg>
