<svg width="587" height="55" viewBox="0 0 587 55" fill="none" xmlns="http://www.w3.org/2000/svg">
<path d="M413.017 27.4172C624.019 26.0987 492.973 78.985 507.024 19.4971C521.076 -39.9909 547.483 68.0319 558.524 19.5414C604.031 11.5806 577.546 -5.4412 579.024 19.5601C580.207 39.5611 572.171 42.5542 568.005 41.5506" stroke="black" stroke-width="2" stroke-linecap="round"/>
<path d="M173.441 26.3107C-37.5469 29.0616 93.1366 -24.7131 79.4896 34.8689C65.8426 94.4508 38.7028 -13.3901 27.9905 35.1742C-17.4613 43.4437 9.13902 60.2853 7.49084 35.2946C6.1723 15.3021 14.1877 12.2546 18.3602 13.2299" stroke="black" stroke-width="2" stroke-linecap="round"/>
<path d="M215.574 30.8613H218.809C218.727 32.6191 218.369 34.1367 217.736 35.4141C217.115 36.6797 216.207 37.6523 215.012 38.332C213.828 39.0117 212.346 39.3516 210.564 39.3516C209.287 39.3516 208.133 39.0996 207.102 38.5957C206.07 38.0918 205.186 37.3711 204.447 36.4336C203.721 35.4844 203.164 34.3477 202.777 33.0234C202.391 31.6992 202.197 30.2109 202.197 28.5586V23.8301C202.197 22.1895 202.391 20.707 202.777 19.3828C203.176 18.0586 203.744 16.9277 204.482 15.9902C205.232 15.041 206.141 14.3145 207.207 13.8105C208.285 13.3066 209.504 13.0547 210.863 13.0547C212.527 13.0547 213.934 13.3887 215.082 14.0566C216.242 14.7129 217.133 15.6797 217.754 16.957C218.387 18.2227 218.738 19.7754 218.809 21.6152H215.574C215.492 20.2676 215.281 19.1719 214.941 18.3281C214.602 17.4727 214.098 16.8457 213.43 16.4473C212.773 16.0371 211.918 15.832 210.863 15.832C209.926 15.832 209.111 16.0195 208.42 16.3945C207.74 16.7695 207.178 17.3086 206.732 18.0117C206.299 18.7031 205.971 19.541 205.748 20.5254C205.537 21.498 205.432 22.5879 205.432 23.7949V28.5586C205.432 29.6836 205.52 30.7324 205.695 31.7051C205.883 32.6777 206.176 33.5332 206.574 34.2715C206.984 34.998 207.518 35.5664 208.174 35.9766C208.83 36.3867 209.627 36.5918 210.564 36.5918C211.748 36.5918 212.686 36.3984 213.377 36.0117C214.068 35.625 214.578 35.0098 214.906 34.166C215.246 33.3223 215.469 32.2207 215.574 30.8613ZM231.482 15.6738L224.486 39H221.182L229.426 13.4062H231.5L231.482 15.6738ZM237.143 39L230.146 15.6738L230.111 13.4062H232.203L240.447 39H237.143ZM237.143 29.5254V32.3027H224.803V29.5254H237.143ZM249.904 13.4062V39H246.705V13.4062H249.904ZM256.637 13.4062V16.1836H239.99V13.4062H256.637ZM274.18 36.2402V39H263.07V36.2402H274.18ZM263.65 13.4062V39H260.416V13.4062H263.65ZM272.686 24.4102V27.1699H263.07V24.4102H272.686ZM274.004 13.4062V16.1836H263.07V13.4062H274.004ZM294.342 26.2559V35.8008C294.061 36.1758 293.633 36.6445 293.059 37.207C292.496 37.7695 291.705 38.2676 290.686 38.7012C289.666 39.1348 288.33 39.3516 286.678 39.3516C285.354 39.3516 284.141 39.1289 283.039 38.6836C281.949 38.2383 281.006 37.5703 280.209 36.6797C279.424 35.7773 278.814 34.6582 278.381 33.3223C277.947 31.9746 277.73 30.3984 277.73 28.5938V23.7949C277.73 22.002 277.912 20.4316 278.275 19.084C278.639 17.7363 279.178 16.6172 279.893 15.7266C280.619 14.8359 281.516 14.168 282.582 13.7227C283.66 13.2773 284.914 13.0547 286.344 13.0547C287.996 13.0547 289.402 13.3652 290.562 13.9863C291.723 14.6074 292.619 15.5039 293.252 16.6758C293.896 17.8477 294.26 19.2539 294.342 20.8945H291.107C291.025 19.8398 290.803 18.9375 290.439 18.1875C290.076 17.4258 289.561 16.8457 288.893 16.4473C288.225 16.0371 287.375 15.832 286.344 15.832C285.359 15.832 284.527 15.9961 283.848 16.3242C283.168 16.6523 282.611 17.1445 282.178 17.8008C281.756 18.457 281.445 19.2832 281.246 20.2793C281.059 21.2754 280.965 22.4355 280.965 23.7598V28.5938C280.965 29.9531 281.1 31.1367 281.369 32.1445C281.639 33.1523 282.02 33.9844 282.512 34.6406C283.016 35.2969 283.619 35.7891 284.322 36.1172C285.025 36.4336 285.816 36.5918 286.695 36.5918C287.691 36.5918 288.477 36.4863 289.051 36.2754C289.625 36.0645 290.064 35.8242 290.369 35.5547C290.686 35.2852 290.938 35.0684 291.125 34.9043V28.998H286.432V26.2559H294.342ZM316.227 23.9883V28.4355C316.227 30.2402 316.027 31.8281 315.629 33.1992C315.242 34.5586 314.674 35.6953 313.924 36.6094C313.174 37.5234 312.271 38.209 311.217 38.666C310.162 39.123 308.973 39.3516 307.648 39.3516C306.371 39.3516 305.205 39.123 304.15 38.666C303.096 38.209 302.188 37.5234 301.426 36.6094C300.664 35.6953 300.072 34.5586 299.65 33.1992C299.24 31.8281 299.035 30.2402 299.035 28.4355V23.9883C299.035 22.1836 299.24 20.6016 299.65 19.2422C300.061 17.8711 300.646 16.7285 301.408 15.8145C302.17 14.9004 303.078 14.2148 304.133 13.7578C305.188 13.2891 306.354 13.0547 307.631 13.0547C308.955 13.0547 310.145 13.2891 311.199 13.7578C312.266 14.2148 313.168 14.9004 313.906 15.8145C314.656 16.7285 315.23 17.8711 315.629 19.2422C316.027 20.6016 316.227 22.1836 316.227 23.9883ZM313.027 28.4355V23.9531C313.027 22.5469 312.91 21.3398 312.676 20.332C312.441 19.3125 312.096 18.4805 311.639 17.8359C311.182 17.1914 310.619 16.7168 309.951 16.4121C309.283 16.0957 308.51 15.9375 307.631 15.9375C306.799 15.9375 306.049 16.0957 305.381 16.4121C304.725 16.7168 304.162 17.1914 303.693 17.8359C303.225 18.4805 302.861 19.3125 302.604 20.332C302.357 21.3398 302.234 22.5469 302.234 23.9531V28.4355C302.234 29.8535 302.357 31.0723 302.604 32.0918C302.861 33.0996 303.225 33.9316 303.693 34.5879C304.174 35.2324 304.748 35.7129 305.416 36.0293C306.084 36.334 306.828 36.4863 307.648 36.4863C308.527 36.4863 309.301 36.334 309.969 36.0293C310.648 35.7129 311.211 35.2324 311.656 34.5879C312.113 33.9316 312.453 33.0996 312.676 32.0918C312.91 31.0723 313.027 29.8535 313.027 28.4355ZM321.254 13.4062H328.408C330.072 13.4062 331.467 13.6992 332.592 14.2852C333.729 14.8711 334.584 15.7383 335.158 16.8867C335.744 18.0234 336.037 19.4238 336.037 21.0879C336.037 22.2598 335.844 23.332 335.457 24.3047C335.07 25.2656 334.508 26.0859 333.77 26.7656C333.031 27.4336 332.135 27.9316 331.08 28.2598L330.201 28.6289H323.82L323.785 25.8691H328.373C329.357 25.8691 330.178 25.6582 330.834 25.2363C331.49 24.8027 331.982 24.2227 332.311 23.4961C332.639 22.7695 332.803 21.9668 332.803 21.0879C332.803 20.1035 332.656 19.2422 332.363 18.5039C332.07 17.7656 331.602 17.1973 330.957 16.7988C330.324 16.3887 329.475 16.1836 328.408 16.1836H324.488V39H321.254V13.4062ZM333.541 39L328.443 27.3984L331.801 27.3809L337.004 38.7891V39H333.541ZM343.736 13.4062V39H340.502V13.4062H343.736ZM357.975 15.6738L350.979 39H347.674L355.918 13.4062H357.992L357.975 15.6738ZM363.635 39L356.639 15.6738L356.604 13.4062H358.695L366.939 39H363.635ZM363.635 29.5254V32.3027H351.295V29.5254H363.635ZM381.652 32.5312C381.652 31.9336 381.582 31.4062 381.441 30.9492C381.301 30.4805 381.055 30.0586 380.703 29.6836C380.352 29.3086 379.859 28.9512 379.227 28.6113C378.594 28.2715 377.791 27.9258 376.818 27.5742C375.764 27.1992 374.809 26.7832 373.953 26.3262C373.098 25.8574 372.365 25.3242 371.756 24.7266C371.158 24.1289 370.695 23.4434 370.367 22.6699C370.039 21.8965 369.875 21.0117 369.875 20.0156C369.875 19.0195 370.045 18.0996 370.385 17.2559C370.736 16.4121 371.229 15.6797 371.861 15.0586C372.506 14.4258 373.279 13.9336 374.182 13.582C375.084 13.2305 376.092 13.0547 377.205 13.0547C378.869 13.0547 380.27 13.4238 381.406 14.1621C382.555 14.8887 383.422 15.8438 384.008 17.0273C384.594 18.1992 384.887 19.4531 384.887 20.7891H381.652C381.652 19.8281 381.494 18.9785 381.178 18.2402C380.873 17.4902 380.393 16.9043 379.736 16.4824C379.092 16.0488 378.248 15.832 377.205 15.832C376.268 15.832 375.494 16.0137 374.885 16.377C374.287 16.7402 373.842 17.2324 373.549 17.8535C373.268 18.4746 373.127 19.1836 373.127 19.9805C373.127 20.5195 373.221 21.0117 373.408 21.457C373.596 21.8906 373.883 22.2949 374.27 22.6699C374.668 23.0449 375.16 23.3906 375.746 23.707C376.344 24.0234 377.047 24.3281 377.855 24.6211C379.109 25.0312 380.182 25.4883 381.072 25.9922C381.963 26.4961 382.689 27.0645 383.252 27.6973C383.814 28.3184 384.225 29.0273 384.482 29.8242C384.752 30.6094 384.887 31.5 384.887 32.4961C384.887 33.5391 384.711 34.4824 384.359 35.3262C384.02 36.1699 383.521 36.8906 382.865 37.4883C382.209 38.0859 381.418 38.5488 380.492 38.877C379.566 39.1934 378.523 39.3516 377.363 39.3516C376.355 39.3516 375.365 39.1875 374.393 38.8594C373.432 38.5312 372.559 38.0391 371.773 37.3828C370.988 36.7266 370.361 35.918 369.893 34.957C369.424 33.9844 369.189 32.8594 369.189 31.582H372.424C372.424 32.4609 372.553 33.2168 372.811 33.8496C373.068 34.4707 373.426 34.9863 373.883 35.3965C374.34 35.8066 374.861 36.1113 375.447 36.3105C376.045 36.498 376.684 36.5918 377.363 36.5918C378.301 36.5918 379.086 36.4277 379.719 36.0996C380.363 35.7715 380.844 35.3027 381.16 34.6934C381.488 34.084 381.652 33.3633 381.652 32.5312Z" fill="black"/>
</svg>
